<mxfile host="app.diagrams.net" agent="Mozilla/5.0 (Windows NT 10.0; Win64; x64) AppleWebKit/537.36 (KHTML, like Gecko) Chrome/134.0.0.0 Safari/537.36" version="26.1.0">
  <diagram name="第 1 页" id="pHdr8dvODz4z5VKgqFe6">
    <mxGraphModel dx="2231" dy="1157" grid="1" gridSize="10" guides="1" tooltips="1" connect="1" arrows="1" fold="1" page="1" pageScale="1" pageWidth="827" pageHeight="1169" math="0" shadow="0">
      <root>
        <mxCell id="0" />
        <mxCell id="1" parent="0" />
        <mxCell id="sFgn5G1fT1Je-X125Eh7-5" value="" style="edgeStyle=orthogonalEdgeStyle;rounded=0;orthogonalLoop=1;jettySize=auto;html=1;" edge="1" parent="1" source="sFgn5G1fT1Je-X125Eh7-1" target="sFgn5G1fT1Je-X125Eh7-4">
          <mxGeometry relative="1" as="geometry" />
        </mxCell>
        <mxCell id="sFgn5G1fT1Je-X125Eh7-1" value="选择功能场景" style="rounded=0;whiteSpace=wrap;html=1;" vertex="1" parent="1">
          <mxGeometry x="160" y="80" width="80" height="40" as="geometry" />
        </mxCell>
        <mxCell id="sFgn5G1fT1Je-X125Eh7-7" value="" style="edgeStyle=orthogonalEdgeStyle;rounded=0;orthogonalLoop=1;jettySize=auto;html=1;" edge="1" parent="1" source="sFgn5G1fT1Je-X125Eh7-4" target="sFgn5G1fT1Je-X125Eh7-6">
          <mxGeometry relative="1" as="geometry" />
        </mxCell>
        <mxCell id="sFgn5G1fT1Je-X125Eh7-4" value="一个input+对应场景组件" style="rounded=0;whiteSpace=wrap;html=1;" vertex="1" parent="1">
          <mxGeometry x="160" y="160" width="80" height="40" as="geometry" />
        </mxCell>
        <mxCell id="sFgn5G1fT1Je-X125Eh7-9" value="" style="edgeStyle=orthogonalEdgeStyle;rounded=0;orthogonalLoop=1;jettySize=auto;html=1;" edge="1" parent="1" source="sFgn5G1fT1Je-X125Eh7-6" target="sFgn5G1fT1Je-X125Eh7-8">
          <mxGeometry relative="1" as="geometry" />
        </mxCell>
        <mxCell id="sFgn5G1fT1Je-X125Eh7-136" value="" style="edgeStyle=orthogonalEdgeStyle;rounded=0;orthogonalLoop=1;jettySize=auto;html=1;" edge="1" parent="1" source="sFgn5G1fT1Je-X125Eh7-6" target="sFgn5G1fT1Je-X125Eh7-135">
          <mxGeometry relative="1" as="geometry" />
        </mxCell>
        <mxCell id="sFgn5G1fT1Je-X125Eh7-6" value="输入文本消息" style="rounded=0;whiteSpace=wrap;html=1;" vertex="1" parent="1">
          <mxGeometry x="160" y="240" width="80" height="40" as="geometry" />
        </mxCell>
        <mxCell id="sFgn5G1fT1Je-X125Eh7-11" value="" style="edgeStyle=orthogonalEdgeStyle;rounded=0;orthogonalLoop=1;jettySize=auto;html=1;" edge="1" parent="1" source="sFgn5G1fT1Je-X125Eh7-8" target="sFgn5G1fT1Je-X125Eh7-10">
          <mxGeometry relative="1" as="geometry" />
        </mxCell>
        <mxCell id="sFgn5G1fT1Je-X125Eh7-8" value="发送消息" style="rounded=0;whiteSpace=wrap;html=1;" vertex="1" parent="1">
          <mxGeometry x="160" y="320" width="80" height="40" as="geometry" />
        </mxCell>
        <mxCell id="sFgn5G1fT1Je-X125Eh7-17" value="" style="edgeStyle=orthogonalEdgeStyle;rounded=0;orthogonalLoop=1;jettySize=auto;html=1;" edge="1" parent="1" source="sFgn5G1fT1Je-X125Eh7-10" target="sFgn5G1fT1Je-X125Eh7-16">
          <mxGeometry relative="1" as="geometry" />
        </mxCell>
        <mxCell id="sFgn5G1fT1Je-X125Eh7-10" value="消息处理" style="rounded=0;whiteSpace=wrap;html=1;" vertex="1" parent="1">
          <mxGeometry x="160" y="400" width="80" height="40" as="geometry" />
        </mxCell>
        <mxCell id="sFgn5G1fT1Je-X125Eh7-19" value="" style="edgeStyle=orthogonalEdgeStyle;rounded=0;orthogonalLoop=1;jettySize=auto;html=1;" edge="1" parent="1" source="sFgn5G1fT1Je-X125Eh7-16" target="sFgn5G1fT1Je-X125Eh7-18">
          <mxGeometry relative="1" as="geometry" />
        </mxCell>
        <mxCell id="sFgn5G1fT1Je-X125Eh7-25" value="" style="edgeStyle=orthogonalEdgeStyle;rounded=0;orthogonalLoop=1;jettySize=auto;html=1;" edge="1" parent="1" source="sFgn5G1fT1Je-X125Eh7-16" target="sFgn5G1fT1Je-X125Eh7-23">
          <mxGeometry relative="1" as="geometry" />
        </mxCell>
        <mxCell id="sFgn5G1fT1Je-X125Eh7-16" value="trycatch" style="rhombus;whiteSpace=wrap;html=1;rounded=0;" vertex="1" parent="1">
          <mxGeometry x="160" y="470" width="80" height="50" as="geometry" />
        </mxCell>
        <mxCell id="sFgn5G1fT1Je-X125Eh7-18" value="抛出错误" style="whiteSpace=wrap;html=1;rounded=0;" vertex="1" parent="1">
          <mxGeometry x="20" y="472.5" width="80" height="45" as="geometry" />
        </mxCell>
        <mxCell id="sFgn5G1fT1Je-X125Eh7-23" value="保存答案" style="rounded=0;whiteSpace=wrap;html=1;" vertex="1" parent="1">
          <mxGeometry x="160" y="545" width="80" height="40" as="geometry" />
        </mxCell>
        <mxCell id="sFgn5G1fT1Je-X125Eh7-30" value="消息处理" style="shape=table;startSize=33;container=1;collapsible=0;childLayout=tableLayout;strokeColor=default;fontSize=16;align=center;" vertex="1" parent="1">
          <mxGeometry x="670" y="137" width="657.9999999999995" height="566" as="geometry" />
        </mxCell>
        <mxCell id="sFgn5G1fT1Je-X125Eh7-31" value="" style="shape=tableRow;horizontal=0;startSize=0;swimlaneHead=0;swimlaneBody=0;strokeColor=inherit;top=0;left=0;bottom=0;right=0;collapsible=0;dropTarget=0;fillColor=none;points=[[0,0.5],[1,0.5]];portConstraint=eastwest;fontSize=16;" vertex="1" parent="sFgn5G1fT1Je-X125Eh7-30">
          <mxGeometry y="33" width="657.9999999999995" height="28" as="geometry" />
        </mxCell>
        <mxCell id="sFgn5G1fT1Je-X125Eh7-32" value="&lt;font&gt;&lt;span style=&quot;font-family: Inter, -apple-system, BlinkMacSystemFont, &amp;quot;Segoe UI&amp;quot;, &amp;quot;SF Pro SC&amp;quot;, &amp;quot;SF Pro Display&amp;quot;, &amp;quot;SF Pro Icons&amp;quot;, &amp;quot;PingFang SC&amp;quot;, &amp;quot;Hiragino Sans GB&amp;quot;, &amp;quot;Microsoft YaHei&amp;quot;, &amp;quot;Helvetica Neue&amp;quot;, Helvetica, Arial, sans-serif; font-weight: 600; text-align: left; background-color: rgba(0, 0, 0, 0.06);&quot;&gt;标识符（&lt;/span&gt;&lt;code style=&quot;-webkit-font-smoothing: antialiased; box-sizing: border-box; -webkit-tap-highlight-color: rgba(0, 0, 0, 0); background: var(--color-inline-code-background); border-radius: 4px; font-family: Menlo, Monaco, Consolas, &amp;quot;Courier New&amp;quot;, monospace; overflow-anchor: auto; font-weight: 600; text-align: left;&quot;&gt;event_type&lt;/code&gt;&lt;span style=&quot;font-family: Inter, -apple-system, BlinkMacSystemFont, &amp;quot;Segoe UI&amp;quot;, &amp;quot;SF Pro SC&amp;quot;, &amp;quot;SF Pro Display&amp;quot;, &amp;quot;SF Pro Icons&amp;quot;, &amp;quot;PingFang SC&amp;quot;, &amp;quot;Hiragino Sans GB&amp;quot;, &amp;quot;Microsoft YaHei&amp;quot;, &amp;quot;Helvetica Neue&amp;quot;, Helvetica, Arial, sans-serif; font-weight: 600; text-align: left; background-color: rgba(0, 0, 0, 0.06);&quot;&gt;）&lt;/span&gt;&lt;/font&gt;" style="shape=partialRectangle;html=1;whiteSpace=wrap;connectable=0;strokeColor=inherit;overflow=hidden;fillColor=none;top=0;left=0;bottom=0;right=0;pointerEvents=1;fontSize=16;" vertex="1" parent="sFgn5G1fT1Je-X125Eh7-31">
          <mxGeometry width="240" height="28" as="geometry">
            <mxRectangle width="240" height="28" as="alternateBounds" />
          </mxGeometry>
        </mxCell>
        <mxCell id="sFgn5G1fT1Je-X125Eh7-33" value="&lt;font&gt;&lt;span style=&quot;font-family: Inter, -apple-system, BlinkMacSystemFont, &amp;quot;Segoe UI&amp;quot;, &amp;quot;SF Pro SC&amp;quot;, &amp;quot;SF Pro Display&amp;quot;, &amp;quot;SF Pro Icons&amp;quot;, &amp;quot;PingFang SC&amp;quot;, &amp;quot;Hiragino Sans GB&amp;quot;, &amp;quot;Microsoft YaHei&amp;quot;, &amp;quot;Helvetica Neue&amp;quot;, Helvetica, Arial, sans-serif; font-weight: 600; text-align: left; background-color: rgba(0, 0, 0, 0.06);&quot;&gt;对应组件类型（&lt;/span&gt;&lt;code style=&quot;-webkit-font-smoothing: antialiased; box-sizing: border-box; -webkit-tap-highlight-color: rgba(0, 0, 0, 0); background: var(--color-inline-code-background); border-radius: 4px; font-family: Menlo, Monaco, Consolas, &amp;quot;Courier New&amp;quot;, monospace; overflow-anchor: auto; font-weight: 600; text-align: left;&quot;&gt;comType&lt;/code&gt;&lt;span style=&quot;font-family: Inter, -apple-system, BlinkMacSystemFont, &amp;quot;Segoe UI&amp;quot;, &amp;quot;SF Pro SC&amp;quot;, &amp;quot;SF Pro Display&amp;quot;, &amp;quot;SF Pro Icons&amp;quot;, &amp;quot;PingFang SC&amp;quot;, &amp;quot;Hiragino Sans GB&amp;quot;, &amp;quot;Microsoft YaHei&amp;quot;, &amp;quot;Helvetica Neue&amp;quot;, Helvetica, Arial, sans-serif; font-weight: 600; text-align: left; background-color: rgba(0, 0, 0, 0.06);&quot;&gt;）&lt;/span&gt;&lt;/font&gt;" style="shape=partialRectangle;html=1;whiteSpace=wrap;connectable=0;strokeColor=inherit;overflow=hidden;fillColor=none;top=0;left=0;bottom=0;right=0;pointerEvents=1;fontSize=16;" vertex="1" parent="sFgn5G1fT1Je-X125Eh7-31">
          <mxGeometry x="240" width="300" height="28" as="geometry">
            <mxRectangle width="300" height="28" as="alternateBounds" />
          </mxGeometry>
        </mxCell>
        <mxCell id="sFgn5G1fT1Je-X125Eh7-34" value="备注" style="shape=partialRectangle;html=1;whiteSpace=wrap;connectable=0;strokeColor=inherit;overflow=hidden;fillColor=none;top=0;left=0;bottom=0;right=0;pointerEvents=1;fontSize=16;" vertex="1" parent="sFgn5G1fT1Je-X125Eh7-31">
          <mxGeometry x="540" width="118" height="28" as="geometry">
            <mxRectangle width="118" height="28" as="alternateBounds" />
          </mxGeometry>
        </mxCell>
        <mxCell id="sFgn5G1fT1Je-X125Eh7-35" value="" style="shape=tableRow;horizontal=0;startSize=0;swimlaneHead=0;swimlaneBody=0;strokeColor=inherit;top=0;left=0;bottom=0;right=0;collapsible=0;dropTarget=0;fillColor=none;points=[[0,0.5],[1,0.5]];portConstraint=eastwest;fontSize=16;" vertex="1" parent="sFgn5G1fT1Je-X125Eh7-30">
          <mxGeometry y="61" width="657.9999999999995" height="28" as="geometry" />
        </mxCell>
        <mxCell id="sFgn5G1fT1Je-X125Eh7-36" value="start" style="shape=partialRectangle;html=1;whiteSpace=wrap;connectable=0;strokeColor=#6c8ebf;overflow=hidden;fillColor=#dae8fc;top=0;left=0;bottom=0;right=0;pointerEvents=1;fontSize=16;align=left;" vertex="1" parent="sFgn5G1fT1Je-X125Eh7-35">
          <mxGeometry width="240" height="28" as="geometry">
            <mxRectangle width="240" height="28" as="alternateBounds" />
          </mxGeometry>
        </mxCell>
        <mxCell id="sFgn5G1fT1Je-X125Eh7-37" value="title" style="shape=partialRectangle;html=1;whiteSpace=wrap;connectable=0;strokeColor=#6c8ebf;overflow=hidden;fillColor=#dae8fc;top=0;left=0;bottom=0;right=0;pointerEvents=1;fontSize=16;align=left;" vertex="1" parent="sFgn5G1fT1Je-X125Eh7-35">
          <mxGeometry x="240" width="300" height="28" as="geometry">
            <mxRectangle width="300" height="28" as="alternateBounds" />
          </mxGeometry>
        </mxCell>
        <mxCell id="sFgn5G1fT1Je-X125Eh7-38" value="" style="shape=partialRectangle;html=1;whiteSpace=wrap;connectable=0;strokeColor=#6c8ebf;overflow=hidden;fillColor=#dae8fc;top=0;left=0;bottom=0;right=0;pointerEvents=1;fontSize=16;" vertex="1" parent="sFgn5G1fT1Je-X125Eh7-35">
          <mxGeometry x="540" width="118" height="28" as="geometry">
            <mxRectangle width="118" height="28" as="alternateBounds" />
          </mxGeometry>
        </mxCell>
        <mxCell id="sFgn5G1fT1Je-X125Eh7-39" value="" style="shape=tableRow;horizontal=0;startSize=0;swimlaneHead=0;swimlaneBody=0;strokeColor=inherit;top=0;left=0;bottom=0;right=0;collapsible=0;dropTarget=0;fillColor=none;points=[[0,0.5],[1,0.5]];portConstraint=eastwest;fontSize=16;" vertex="1" parent="sFgn5G1fT1Je-X125Eh7-30">
          <mxGeometry y="89" width="657.9999999999995" height="28" as="geometry" />
        </mxCell>
        <mxCell id="sFgn5G1fT1Je-X125Eh7-40" value="&lt;div style=&quot;&quot;&gt;message&lt;/div&gt;" style="shape=partialRectangle;html=1;whiteSpace=wrap;connectable=0;strokeColor=#82b366;overflow=hidden;fillColor=#d5e8d4;top=0;left=0;bottom=0;right=0;pointerEvents=1;fontSize=16;align=left;" vertex="1" parent="sFgn5G1fT1Je-X125Eh7-39">
          <mxGeometry width="240" height="28" as="geometry">
            <mxRectangle width="240" height="28" as="alternateBounds" />
          </mxGeometry>
        </mxCell>
        <mxCell id="sFgn5G1fT1Je-X125Eh7-41" value="title" style="shape=partialRectangle;html=1;whiteSpace=wrap;connectable=0;strokeColor=#82b366;overflow=hidden;fillColor=#d5e8d4;top=0;left=0;bottom=0;right=0;pointerEvents=1;fontSize=16;align=left;" vertex="1" parent="sFgn5G1fT1Je-X125Eh7-39">
          <mxGeometry x="240" width="300" height="28" as="geometry">
            <mxRectangle width="300" height="28" as="alternateBounds" />
          </mxGeometry>
        </mxCell>
        <mxCell id="sFgn5G1fT1Je-X125Eh7-42" value="" style="shape=partialRectangle;html=1;whiteSpace=wrap;connectable=0;strokeColor=#82b366;overflow=hidden;fillColor=#d5e8d4;top=0;left=0;bottom=0;right=0;pointerEvents=1;fontSize=16;" vertex="1" parent="sFgn5G1fT1Je-X125Eh7-39">
          <mxGeometry x="540" width="118" height="28" as="geometry">
            <mxRectangle width="118" height="28" as="alternateBounds" />
          </mxGeometry>
        </mxCell>
        <mxCell id="sFgn5G1fT1Je-X125Eh7-44" style="shape=tableRow;horizontal=0;startSize=0;swimlaneHead=0;swimlaneBody=0;strokeColor=inherit;top=0;left=0;bottom=0;right=0;collapsible=0;dropTarget=0;fillColor=none;points=[[0,0.5],[1,0.5]];portConstraint=eastwest;fontSize=16;" vertex="1" parent="sFgn5G1fT1Je-X125Eh7-30">
          <mxGeometry y="117" width="657.9999999999995" height="27" as="geometry" />
        </mxCell>
        <mxCell id="sFgn5G1fT1Je-X125Eh7-45" value="md_text" style="shape=partialRectangle;html=1;whiteSpace=wrap;connectable=0;strokeColor=#6c8ebf;overflow=hidden;fillColor=#dae8fc;top=0;left=0;bottom=0;right=0;pointerEvents=1;fontSize=16;align=left;" vertex="1" parent="sFgn5G1fT1Je-X125Eh7-44">
          <mxGeometry width="240" height="27" as="geometry">
            <mxRectangle width="240" height="27" as="alternateBounds" />
          </mxGeometry>
        </mxCell>
        <mxCell id="sFgn5G1fT1Je-X125Eh7-46" value="空，默认为md组件" style="shape=partialRectangle;html=1;whiteSpace=wrap;connectable=0;strokeColor=#6c8ebf;overflow=hidden;fillColor=#dae8fc;top=0;left=0;bottom=0;right=0;pointerEvents=1;fontSize=16;align=left;" vertex="1" parent="sFgn5G1fT1Je-X125Eh7-44">
          <mxGeometry x="240" width="300" height="27" as="geometry">
            <mxRectangle width="300" height="27" as="alternateBounds" />
          </mxGeometry>
        </mxCell>
        <mxCell id="sFgn5G1fT1Je-X125Eh7-47" style="shape=partialRectangle;html=1;whiteSpace=wrap;connectable=0;strokeColor=#6c8ebf;overflow=hidden;fillColor=#dae8fc;top=0;left=0;bottom=0;right=0;pointerEvents=1;fontSize=16;" vertex="1" parent="sFgn5G1fT1Je-X125Eh7-44">
          <mxGeometry x="540" width="118" height="27" as="geometry">
            <mxRectangle width="118" height="27" as="alternateBounds" />
          </mxGeometry>
        </mxCell>
        <mxCell id="sFgn5G1fT1Je-X125Eh7-48" style="shape=tableRow;horizontal=0;startSize=0;swimlaneHead=0;swimlaneBody=0;strokeColor=inherit;top=0;left=0;bottom=0;right=0;collapsible=0;dropTarget=0;fillColor=none;points=[[0,0.5],[1,0.5]];portConstraint=eastwest;fontSize=16;" vertex="1" parent="sFgn5G1fT1Je-X125Eh7-30">
          <mxGeometry y="144" width="657.9999999999995" height="28" as="geometry" />
        </mxCell>
        <mxCell id="sFgn5G1fT1Je-X125Eh7-49" value="stream_start" style="shape=partialRectangle;html=1;whiteSpace=wrap;connectable=0;strokeColor=#82b366;overflow=hidden;fillColor=#d5e8d4;top=0;left=0;bottom=0;right=0;pointerEvents=1;fontSize=16;align=left;" vertex="1" parent="sFgn5G1fT1Je-X125Eh7-48">
          <mxGeometry width="240" height="28" as="geometry">
            <mxRectangle width="240" height="28" as="alternateBounds" />
          </mxGeometry>
        </mxCell>
        <mxCell id="sFgn5G1fT1Je-X125Eh7-50" value="空，默认为md组件" style="shape=partialRectangle;html=1;whiteSpace=wrap;connectable=0;strokeColor=#82b366;overflow=hidden;fillColor=#d5e8d4;top=0;left=0;bottom=0;right=0;pointerEvents=1;fontSize=16;align=left;" vertex="1" parent="sFgn5G1fT1Je-X125Eh7-48">
          <mxGeometry x="240" width="300" height="28" as="geometry">
            <mxRectangle width="300" height="28" as="alternateBounds" />
          </mxGeometry>
        </mxCell>
        <mxCell id="sFgn5G1fT1Je-X125Eh7-51" value="流开始" style="shape=partialRectangle;html=1;whiteSpace=wrap;connectable=0;strokeColor=#82b366;overflow=hidden;fillColor=#d5e8d4;top=0;left=0;bottom=0;right=0;pointerEvents=1;fontSize=16;" vertex="1" parent="sFgn5G1fT1Je-X125Eh7-48">
          <mxGeometry x="540" width="118" height="28" as="geometry">
            <mxRectangle width="118" height="28" as="alternateBounds" />
          </mxGeometry>
        </mxCell>
        <mxCell id="sFgn5G1fT1Je-X125Eh7-52" style="shape=tableRow;horizontal=0;startSize=0;swimlaneHead=0;swimlaneBody=0;strokeColor=inherit;top=0;left=0;bottom=0;right=0;collapsible=0;dropTarget=0;fillColor=none;points=[[0,0.5],[1,0.5]];portConstraint=eastwest;fontSize=16;" vertex="1" parent="sFgn5G1fT1Je-X125Eh7-30">
          <mxGeometry y="172" width="657.9999999999995" height="48" as="geometry" />
        </mxCell>
        <mxCell id="sFgn5G1fT1Je-X125Eh7-53" value="text_chunk、analyze_chunk" style="shape=partialRectangle;html=1;whiteSpace=wrap;connectable=0;strokeColor=#82b366;overflow=hidden;fillColor=#d5e8d4;top=0;left=0;bottom=0;right=0;pointerEvents=1;fontSize=16;align=left;" vertex="1" parent="sFgn5G1fT1Je-X125Eh7-52">
          <mxGeometry width="240" height="48" as="geometry">
            <mxRectangle width="240" height="48" as="alternateBounds" />
          </mxGeometry>
        </mxCell>
        <mxCell id="sFgn5G1fT1Je-X125Eh7-54" value="无，找到上一条消息追加流返回文本内容" style="shape=partialRectangle;html=1;whiteSpace=wrap;connectable=0;strokeColor=#82b366;overflow=hidden;fillColor=#d5e8d4;top=0;left=0;bottom=0;right=0;pointerEvents=1;fontSize=16;align=left;" vertex="1" parent="sFgn5G1fT1Je-X125Eh7-52">
          <mxGeometry x="240" width="300" height="48" as="geometry">
            <mxRectangle width="300" height="48" as="alternateBounds" />
          </mxGeometry>
        </mxCell>
        <mxCell id="sFgn5G1fT1Je-X125Eh7-55" value="流chunk" style="shape=partialRectangle;html=1;whiteSpace=wrap;connectable=0;strokeColor=#82b366;overflow=hidden;fillColor=#d5e8d4;top=0;left=0;bottom=0;right=0;pointerEvents=1;fontSize=16;" vertex="1" parent="sFgn5G1fT1Je-X125Eh7-52">
          <mxGeometry x="540" width="118" height="48" as="geometry">
            <mxRectangle width="118" height="48" as="alternateBounds" />
          </mxGeometry>
        </mxCell>
        <mxCell id="sFgn5G1fT1Je-X125Eh7-56" style="shape=tableRow;horizontal=0;startSize=0;swimlaneHead=0;swimlaneBody=0;strokeColor=inherit;top=0;left=0;bottom=0;right=0;collapsible=0;dropTarget=0;fillColor=none;points=[[0,0.5],[1,0.5]];portConstraint=eastwest;fontSize=16;" vertex="1" parent="sFgn5G1fT1Je-X125Eh7-30">
          <mxGeometry y="220" width="657.9999999999995" height="28" as="geometry" />
        </mxCell>
        <mxCell id="sFgn5G1fT1Je-X125Eh7-57" value="stream_end" style="shape=partialRectangle;html=1;whiteSpace=wrap;connectable=0;strokeColor=#82b366;overflow=hidden;fillColor=#d5e8d4;top=0;left=0;bottom=0;right=0;pointerEvents=1;fontSize=16;align=left;" vertex="1" parent="sFgn5G1fT1Je-X125Eh7-56">
          <mxGeometry width="240" height="28" as="geometry">
            <mxRectangle width="240" height="28" as="alternateBounds" />
          </mxGeometry>
        </mxCell>
        <mxCell id="sFgn5G1fT1Je-X125Eh7-58" value="无" style="shape=partialRectangle;html=1;whiteSpace=wrap;connectable=0;strokeColor=#82b366;overflow=hidden;fillColor=#d5e8d4;top=0;left=0;bottom=0;right=0;pointerEvents=1;fontSize=16;align=left;" vertex="1" parent="sFgn5G1fT1Je-X125Eh7-56">
          <mxGeometry x="240" width="300" height="28" as="geometry">
            <mxRectangle width="300" height="28" as="alternateBounds" />
          </mxGeometry>
        </mxCell>
        <mxCell id="sFgn5G1fT1Je-X125Eh7-59" value="流结束" style="shape=partialRectangle;html=1;whiteSpace=wrap;connectable=0;strokeColor=#82b366;overflow=hidden;fillColor=#d5e8d4;top=0;left=0;bottom=0;right=0;pointerEvents=1;fontSize=16;" vertex="1" parent="sFgn5G1fT1Je-X125Eh7-56">
          <mxGeometry x="540" width="118" height="28" as="geometry">
            <mxRectangle width="118" height="28" as="alternateBounds" />
          </mxGeometry>
        </mxCell>
        <mxCell id="sFgn5G1fT1Je-X125Eh7-60" style="shape=tableRow;horizontal=0;startSize=0;swimlaneHead=0;swimlaneBody=0;strokeColor=inherit;top=0;left=0;bottom=0;right=0;collapsible=0;dropTarget=0;fillColor=none;points=[[0,0.5],[1,0.5]];portConstraint=eastwest;fontSize=16;" vertex="1" parent="sFgn5G1fT1Je-X125Eh7-30">
          <mxGeometry y="248" width="657.9999999999995" height="28" as="geometry" />
        </mxCell>
        <mxCell id="sFgn5G1fT1Je-X125Eh7-61" value="think_start" style="shape=partialRectangle;html=1;whiteSpace=wrap;connectable=0;strokeColor=#6c8ebf;overflow=hidden;fillColor=#dae8fc;top=0;left=0;bottom=0;right=0;pointerEvents=1;fontSize=16;align=left;" vertex="1" parent="sFgn5G1fT1Je-X125Eh7-60">
          <mxGeometry width="240" height="28" as="geometry">
            <mxRectangle width="240" height="28" as="alternateBounds" />
          </mxGeometry>
        </mxCell>
        <mxCell id="sFgn5G1fT1Je-X125Eh7-62" value="think" style="shape=partialRectangle;html=1;whiteSpace=wrap;connectable=0;strokeColor=#6c8ebf;overflow=hidden;fillColor=#dae8fc;top=0;left=0;bottom=0;right=0;pointerEvents=1;fontSize=16;align=left;" vertex="1" parent="sFgn5G1fT1Je-X125Eh7-60">
          <mxGeometry x="240" width="300" height="28" as="geometry">
            <mxRectangle width="300" height="28" as="alternateBounds" />
          </mxGeometry>
        </mxCell>
        <mxCell id="sFgn5G1fT1Je-X125Eh7-63" value="流开始" style="shape=partialRectangle;html=1;whiteSpace=wrap;connectable=0;strokeColor=#6c8ebf;overflow=hidden;fillColor=#dae8fc;top=0;left=0;bottom=0;right=0;pointerEvents=1;fontSize=16;" vertex="1" parent="sFgn5G1fT1Je-X125Eh7-60">
          <mxGeometry x="540" width="118" height="28" as="geometry">
            <mxRectangle width="118" height="28" as="alternateBounds" />
          </mxGeometry>
        </mxCell>
        <mxCell id="sFgn5G1fT1Je-X125Eh7-64" style="shape=tableRow;horizontal=0;startSize=0;swimlaneHead=0;swimlaneBody=0;strokeColor=inherit;top=0;left=0;bottom=0;right=0;collapsible=0;dropTarget=0;fillColor=none;points=[[0,0.5],[1,0.5]];portConstraint=eastwest;fontSize=16;" vertex="1" parent="sFgn5G1fT1Je-X125Eh7-30">
          <mxGeometry y="276" width="657.9999999999995" height="47" as="geometry" />
        </mxCell>
        <mxCell id="sFgn5G1fT1Je-X125Eh7-65" value="think_chunk" style="shape=partialRectangle;html=1;whiteSpace=wrap;connectable=0;strokeColor=#6c8ebf;overflow=hidden;fillColor=#dae8fc;top=0;left=0;bottom=0;right=0;pointerEvents=1;fontSize=16;align=left;" vertex="1" parent="sFgn5G1fT1Je-X125Eh7-64">
          <mxGeometry width="240" height="47" as="geometry">
            <mxRectangle width="240" height="47" as="alternateBounds" />
          </mxGeometry>
        </mxCell>
        <mxCell id="sFgn5G1fT1Je-X125Eh7-66" value="无，找到上一条消息追加流返回文本内容" style="shape=partialRectangle;html=1;whiteSpace=wrap;connectable=0;strokeColor=#6c8ebf;overflow=hidden;fillColor=#dae8fc;top=0;left=0;bottom=0;right=0;pointerEvents=1;fontSize=16;align=left;" vertex="1" parent="sFgn5G1fT1Je-X125Eh7-64">
          <mxGeometry x="240" width="300" height="47" as="geometry">
            <mxRectangle width="300" height="47" as="alternateBounds" />
          </mxGeometry>
        </mxCell>
        <mxCell id="sFgn5G1fT1Je-X125Eh7-67" value="流chunk" style="shape=partialRectangle;html=1;whiteSpace=wrap;connectable=0;strokeColor=#6c8ebf;overflow=hidden;fillColor=#dae8fc;top=0;left=0;bottom=0;right=0;pointerEvents=1;fontSize=16;" vertex="1" parent="sFgn5G1fT1Je-X125Eh7-64">
          <mxGeometry x="540" width="118" height="47" as="geometry">
            <mxRectangle width="118" height="47" as="alternateBounds" />
          </mxGeometry>
        </mxCell>
        <mxCell id="sFgn5G1fT1Je-X125Eh7-68" style="shape=tableRow;horizontal=0;startSize=0;swimlaneHead=0;swimlaneBody=0;strokeColor=inherit;top=0;left=0;bottom=0;right=0;collapsible=0;dropTarget=0;fillColor=none;points=[[0,0.5],[1,0.5]];portConstraint=eastwest;fontSize=16;" vertex="1" parent="sFgn5G1fT1Je-X125Eh7-30">
          <mxGeometry y="323" width="657.9999999999995" height="28" as="geometry" />
        </mxCell>
        <mxCell id="sFgn5G1fT1Je-X125Eh7-69" value="think_end" style="shape=partialRectangle;html=1;whiteSpace=wrap;connectable=0;strokeColor=#6c8ebf;overflow=hidden;fillColor=#dae8fc;top=0;left=0;bottom=0;right=0;pointerEvents=1;fontSize=16;align=left;" vertex="1" parent="sFgn5G1fT1Je-X125Eh7-68">
          <mxGeometry width="240" height="28" as="geometry">
            <mxRectangle width="240" height="28" as="alternateBounds" />
          </mxGeometry>
        </mxCell>
        <mxCell id="sFgn5G1fT1Je-X125Eh7-70" value="无" style="shape=partialRectangle;html=1;whiteSpace=wrap;connectable=0;strokeColor=#6c8ebf;overflow=hidden;fillColor=#dae8fc;top=0;left=0;bottom=0;right=0;pointerEvents=1;fontSize=16;align=left;" vertex="1" parent="sFgn5G1fT1Je-X125Eh7-68">
          <mxGeometry x="240" width="300" height="28" as="geometry">
            <mxRectangle width="300" height="28" as="alternateBounds" />
          </mxGeometry>
        </mxCell>
        <mxCell id="sFgn5G1fT1Je-X125Eh7-71" value="流结束" style="shape=partialRectangle;html=1;whiteSpace=wrap;connectable=0;strokeColor=#6c8ebf;overflow=hidden;fillColor=#dae8fc;top=0;left=0;bottom=0;right=0;pointerEvents=1;fontSize=16;" vertex="1" parent="sFgn5G1fT1Je-X125Eh7-68">
          <mxGeometry x="540" width="118" height="28" as="geometry">
            <mxRectangle width="118" height="28" as="alternateBounds" />
          </mxGeometry>
        </mxCell>
        <mxCell id="sFgn5G1fT1Je-X125Eh7-96" style="shape=tableRow;horizontal=0;startSize=0;swimlaneHead=0;swimlaneBody=0;strokeColor=inherit;top=0;left=0;bottom=0;right=0;collapsible=0;dropTarget=0;fillColor=none;points=[[0,0.5],[1,0.5]];portConstraint=eastwest;fontSize=16;" vertex="1" parent="sFgn5G1fT1Je-X125Eh7-30">
          <mxGeometry y="351" width="657.9999999999995" height="28" as="geometry" />
        </mxCell>
        <mxCell id="sFgn5G1fT1Je-X125Eh7-97" value="sql_start" style="shape=partialRectangle;html=1;whiteSpace=wrap;connectable=0;strokeColor=#82b366;overflow=hidden;fillColor=#d5e8d4;top=0;left=0;bottom=0;right=0;pointerEvents=1;fontSize=16;align=left;" vertex="1" parent="sFgn5G1fT1Je-X125Eh7-96">
          <mxGeometry width="240" height="28" as="geometry">
            <mxRectangle width="240" height="28" as="alternateBounds" />
          </mxGeometry>
        </mxCell>
        <mxCell id="sFgn5G1fT1Je-X125Eh7-98" value="sql" style="shape=partialRectangle;html=1;whiteSpace=wrap;connectable=0;strokeColor=#82b366;overflow=hidden;fillColor=#d5e8d4;top=0;left=0;bottom=0;right=0;pointerEvents=1;fontSize=16;align=left;" vertex="1" parent="sFgn5G1fT1Je-X125Eh7-96">
          <mxGeometry x="240" width="300" height="28" as="geometry">
            <mxRectangle width="300" height="28" as="alternateBounds" />
          </mxGeometry>
        </mxCell>
        <mxCell id="sFgn5G1fT1Je-X125Eh7-99" value="流开始" style="shape=partialRectangle;html=1;whiteSpace=wrap;connectable=0;strokeColor=#82b366;overflow=hidden;fillColor=#d5e8d4;top=0;left=0;bottom=0;right=0;pointerEvents=1;fontSize=16;" vertex="1" parent="sFgn5G1fT1Je-X125Eh7-96">
          <mxGeometry x="540" width="118" height="28" as="geometry">
            <mxRectangle width="118" height="28" as="alternateBounds" />
          </mxGeometry>
        </mxCell>
        <mxCell id="sFgn5G1fT1Je-X125Eh7-92" style="shape=tableRow;horizontal=0;startSize=0;swimlaneHead=0;swimlaneBody=0;strokeColor=inherit;top=0;left=0;bottom=0;right=0;collapsible=0;dropTarget=0;fillColor=none;points=[[0,0.5],[1,0.5]];portConstraint=eastwest;fontSize=16;" vertex="1" parent="sFgn5G1fT1Je-X125Eh7-30">
          <mxGeometry y="379" width="657.9999999999995" height="48" as="geometry" />
        </mxCell>
        <mxCell id="sFgn5G1fT1Je-X125Eh7-93" value="sql_chunk" style="shape=partialRectangle;html=1;whiteSpace=wrap;connectable=0;strokeColor=#82b366;overflow=hidden;fillColor=#d5e8d4;top=0;left=0;bottom=0;right=0;pointerEvents=1;fontSize=16;align=left;" vertex="1" parent="sFgn5G1fT1Je-X125Eh7-92">
          <mxGeometry width="240" height="48" as="geometry">
            <mxRectangle width="240" height="48" as="alternateBounds" />
          </mxGeometry>
        </mxCell>
        <mxCell id="sFgn5G1fT1Je-X125Eh7-94" value="无，找到上一条消息追加流返回文本内容" style="shape=partialRectangle;html=1;whiteSpace=wrap;connectable=0;strokeColor=#82b366;overflow=hidden;fillColor=#d5e8d4;top=0;left=0;bottom=0;right=0;pointerEvents=1;fontSize=16;align=left;" vertex="1" parent="sFgn5G1fT1Je-X125Eh7-92">
          <mxGeometry x="240" width="300" height="48" as="geometry">
            <mxRectangle width="300" height="48" as="alternateBounds" />
          </mxGeometry>
        </mxCell>
        <mxCell id="sFgn5G1fT1Je-X125Eh7-95" value="流chunk" style="shape=partialRectangle;html=1;whiteSpace=wrap;connectable=0;strokeColor=#82b366;overflow=hidden;fillColor=#d5e8d4;top=0;left=0;bottom=0;right=0;pointerEvents=1;fontSize=16;" vertex="1" parent="sFgn5G1fT1Je-X125Eh7-92">
          <mxGeometry x="540" width="118" height="48" as="geometry">
            <mxRectangle width="118" height="48" as="alternateBounds" />
          </mxGeometry>
        </mxCell>
        <mxCell id="sFgn5G1fT1Je-X125Eh7-88" style="shape=tableRow;horizontal=0;startSize=0;swimlaneHead=0;swimlaneBody=0;strokeColor=inherit;top=0;left=0;bottom=0;right=0;collapsible=0;dropTarget=0;fillColor=none;points=[[0,0.5],[1,0.5]];portConstraint=eastwest;fontSize=16;" vertex="1" parent="sFgn5G1fT1Je-X125Eh7-30">
          <mxGeometry y="427" width="657.9999999999995" height="28" as="geometry" />
        </mxCell>
        <mxCell id="sFgn5G1fT1Je-X125Eh7-89" value="sql_end" style="shape=partialRectangle;html=1;whiteSpace=wrap;connectable=0;strokeColor=#82b366;overflow=hidden;fillColor=#d5e8d4;top=0;left=0;bottom=0;right=0;pointerEvents=1;fontSize=16;align=left;" vertex="1" parent="sFgn5G1fT1Je-X125Eh7-88">
          <mxGeometry width="240" height="28" as="geometry">
            <mxRectangle width="240" height="28" as="alternateBounds" />
          </mxGeometry>
        </mxCell>
        <mxCell id="sFgn5G1fT1Je-X125Eh7-90" value="无" style="shape=partialRectangle;html=1;whiteSpace=wrap;connectable=0;strokeColor=#82b366;overflow=hidden;fillColor=#d5e8d4;top=0;left=0;bottom=0;right=0;pointerEvents=1;fontSize=16;align=left;" vertex="1" parent="sFgn5G1fT1Je-X125Eh7-88">
          <mxGeometry x="240" width="300" height="28" as="geometry">
            <mxRectangle width="300" height="28" as="alternateBounds" />
          </mxGeometry>
        </mxCell>
        <mxCell id="sFgn5G1fT1Je-X125Eh7-91" value="流结束" style="shape=partialRectangle;html=1;whiteSpace=wrap;connectable=0;strokeColor=#82b366;overflow=hidden;fillColor=#d5e8d4;top=0;left=0;bottom=0;right=0;pointerEvents=1;fontSize=16;" vertex="1" parent="sFgn5G1fT1Je-X125Eh7-88">
          <mxGeometry x="540" width="118" height="28" as="geometry">
            <mxRectangle width="118" height="28" as="alternateBounds" />
          </mxGeometry>
        </mxCell>
        <mxCell id="sFgn5G1fT1Je-X125Eh7-72" style="shape=tableRow;horizontal=0;startSize=0;swimlaneHead=0;swimlaneBody=0;strokeColor=inherit;top=0;left=0;bottom=0;right=0;collapsible=0;dropTarget=0;fillColor=none;points=[[0,0.5],[1,0.5]];portConstraint=eastwest;fontSize=16;" vertex="1" parent="sFgn5G1fT1Je-X125Eh7-30">
          <mxGeometry y="455" width="657.9999999999995" height="27" as="geometry" />
        </mxCell>
        <mxCell id="sFgn5G1fT1Je-X125Eh7-73" value="final" style="shape=partialRectangle;html=1;whiteSpace=wrap;connectable=0;strokeColor=#6c8ebf;overflow=hidden;fillColor=#dae8fc;top=0;left=0;bottom=0;right=0;pointerEvents=1;fontSize=16;align=left;" vertex="1" parent="sFgn5G1fT1Je-X125Eh7-72">
          <mxGeometry width="240" height="27" as="geometry">
            <mxRectangle width="240" height="27" as="alternateBounds" />
          </mxGeometry>
        </mxCell>
        <mxCell id="sFgn5G1fT1Je-X125Eh7-74" value="table" style="shape=partialRectangle;html=1;whiteSpace=wrap;connectable=0;strokeColor=#6c8ebf;overflow=hidden;fillColor=#dae8fc;top=0;left=0;bottom=0;right=0;pointerEvents=1;fontSize=16;align=left;" vertex="1" parent="sFgn5G1fT1Je-X125Eh7-72">
          <mxGeometry x="240" width="300" height="27" as="geometry">
            <mxRectangle width="300" height="27" as="alternateBounds" />
          </mxGeometry>
        </mxCell>
        <mxCell id="sFgn5G1fT1Je-X125Eh7-75" value="表格" style="shape=partialRectangle;html=1;whiteSpace=wrap;connectable=0;strokeColor=#6c8ebf;overflow=hidden;fillColor=#dae8fc;top=0;left=0;bottom=0;right=0;pointerEvents=1;fontSize=16;" vertex="1" parent="sFgn5G1fT1Je-X125Eh7-72">
          <mxGeometry x="540" width="118" height="27" as="geometry">
            <mxRectangle width="118" height="27" as="alternateBounds" />
          </mxGeometry>
        </mxCell>
        <mxCell id="sFgn5G1fT1Je-X125Eh7-76" style="shape=tableRow;horizontal=0;startSize=0;swimlaneHead=0;swimlaneBody=0;strokeColor=inherit;top=0;left=0;bottom=0;right=0;collapsible=0;dropTarget=0;fillColor=none;points=[[0,0.5],[1,0.5]];portConstraint=eastwest;fontSize=16;" vertex="1" parent="sFgn5G1fT1Je-X125Eh7-30">
          <mxGeometry y="482" width="657.9999999999995" height="28" as="geometry" />
        </mxCell>
        <mxCell id="sFgn5G1fT1Je-X125Eh7-77" value="echart" style="shape=partialRectangle;html=1;whiteSpace=wrap;connectable=0;strokeColor=#82b366;overflow=hidden;fillColor=#d5e8d4;top=0;left=0;bottom=0;right=0;pointerEvents=1;fontSize=16;align=left;" vertex="1" parent="sFgn5G1fT1Je-X125Eh7-76">
          <mxGeometry width="240" height="28" as="geometry">
            <mxRectangle width="240" height="28" as="alternateBounds" />
          </mxGeometry>
        </mxCell>
        <mxCell id="sFgn5G1fT1Je-X125Eh7-78" value="echart" style="shape=partialRectangle;html=1;whiteSpace=wrap;connectable=0;strokeColor=#82b366;overflow=hidden;fillColor=#d5e8d4;top=0;left=0;bottom=0;right=0;pointerEvents=1;fontSize=16;align=left;" vertex="1" parent="sFgn5G1fT1Je-X125Eh7-76">
          <mxGeometry x="240" width="300" height="28" as="geometry">
            <mxRectangle width="300" height="28" as="alternateBounds" />
          </mxGeometry>
        </mxCell>
        <mxCell id="sFgn5G1fT1Je-X125Eh7-79" value="echart图表" style="shape=partialRectangle;html=1;whiteSpace=wrap;connectable=0;strokeColor=#82b366;overflow=hidden;fillColor=#d5e8d4;top=0;left=0;bottom=0;right=0;pointerEvents=1;fontSize=16;" vertex="1" parent="sFgn5G1fT1Je-X125Eh7-76">
          <mxGeometry x="540" width="118" height="28" as="geometry">
            <mxRectangle width="118" height="28" as="alternateBounds" />
          </mxGeometry>
        </mxCell>
        <mxCell id="sFgn5G1fT1Je-X125Eh7-80" style="shape=tableRow;horizontal=0;startSize=0;swimlaneHead=0;swimlaneBody=0;strokeColor=inherit;top=0;left=0;bottom=0;right=0;collapsible=0;dropTarget=0;fillColor=none;points=[[0,0.5],[1,0.5]];portConstraint=eastwest;fontSize=16;" vertex="1" parent="sFgn5G1fT1Je-X125Eh7-30">
          <mxGeometry y="510" width="657.9999999999995" height="28" as="geometry" />
        </mxCell>
        <mxCell id="sFgn5G1fT1Je-X125Eh7-81" value="knowledge_retriever" style="shape=partialRectangle;html=1;whiteSpace=wrap;connectable=0;strokeColor=#6c8ebf;overflow=hidden;fillColor=#dae8fc;top=0;left=0;bottom=0;right=0;pointerEvents=1;fontSize=16;align=left;" vertex="1" parent="sFgn5G1fT1Je-X125Eh7-80">
          <mxGeometry width="240" height="28" as="geometry">
            <mxRectangle width="240" height="28" as="alternateBounds" />
          </mxGeometry>
        </mxCell>
        <mxCell id="sFgn5G1fT1Je-X125Eh7-82" value="knowledge" style="shape=partialRectangle;html=1;whiteSpace=wrap;connectable=0;strokeColor=#6c8ebf;overflow=hidden;fillColor=#dae8fc;top=0;left=0;bottom=0;right=0;pointerEvents=1;fontSize=16;align=left;" vertex="1" parent="sFgn5G1fT1Je-X125Eh7-80">
          <mxGeometry x="240" width="300" height="28" as="geometry">
            <mxRectangle width="300" height="28" as="alternateBounds" />
          </mxGeometry>
        </mxCell>
        <mxCell id="sFgn5G1fT1Je-X125Eh7-83" value="知识折叠组件" style="shape=partialRectangle;html=1;whiteSpace=wrap;connectable=0;strokeColor=#6c8ebf;overflow=hidden;fillColor=#dae8fc;top=0;left=0;bottom=0;right=0;pointerEvents=1;fontSize=16;" vertex="1" parent="sFgn5G1fT1Je-X125Eh7-80">
          <mxGeometry x="540" width="118" height="28" as="geometry">
            <mxRectangle width="118" height="28" as="alternateBounds" />
          </mxGeometry>
        </mxCell>
        <mxCell id="sFgn5G1fT1Je-X125Eh7-84" style="shape=tableRow;horizontal=0;startSize=0;swimlaneHead=0;swimlaneBody=0;strokeColor=inherit;top=0;left=0;bottom=0;right=0;collapsible=0;dropTarget=0;fillColor=none;points=[[0,0.5],[1,0.5]];portConstraint=eastwest;fontSize=16;" vertex="1" parent="sFgn5G1fT1Je-X125Eh7-30">
          <mxGeometry y="538" width="657.9999999999995" height="28" as="geometry" />
        </mxCell>
        <mxCell id="sFgn5G1fT1Je-X125Eh7-85" value="ignore" style="shape=partialRectangle;html=1;whiteSpace=wrap;connectable=0;strokeColor=inherit;overflow=hidden;fillColor=none;top=0;left=0;bottom=0;right=0;pointerEvents=1;fontSize=16;align=left;" vertex="1" parent="sFgn5G1fT1Je-X125Eh7-84">
          <mxGeometry width="240" height="28" as="geometry">
            <mxRectangle width="240" height="28" as="alternateBounds" />
          </mxGeometry>
        </mxCell>
        <mxCell id="sFgn5G1fT1Je-X125Eh7-86" value="无" style="shape=partialRectangle;html=1;whiteSpace=wrap;connectable=0;strokeColor=inherit;overflow=hidden;fillColor=none;top=0;left=0;bottom=0;right=0;pointerEvents=1;fontSize=16;align=left;" vertex="1" parent="sFgn5G1fT1Je-X125Eh7-84">
          <mxGeometry x="240" width="300" height="28" as="geometry">
            <mxRectangle width="300" height="28" as="alternateBounds" />
          </mxGeometry>
        </mxCell>
        <mxCell id="sFgn5G1fT1Je-X125Eh7-87" value="break;" style="shape=partialRectangle;html=1;whiteSpace=wrap;connectable=0;strokeColor=inherit;overflow=hidden;fillColor=none;top=0;left=0;bottom=0;right=0;pointerEvents=1;fontSize=16;" vertex="1" parent="sFgn5G1fT1Je-X125Eh7-84">
          <mxGeometry x="540" width="118" height="28" as="geometry">
            <mxRectangle width="118" height="28" as="alternateBounds" />
          </mxGeometry>
        </mxCell>
        <mxCell id="sFgn5G1fT1Je-X125Eh7-104" style="edgeStyle=orthogonalEdgeStyle;rounded=0;orthogonalLoop=1;jettySize=auto;html=1;exitX=1;exitY=0.5;exitDx=0;exitDy=0;entryX=0.005;entryY=0.194;entryDx=0;entryDy=0;entryPerimeter=0;" edge="1" parent="1" source="sFgn5G1fT1Je-X125Eh7-10" target="sFgn5G1fT1Je-X125Eh7-64">
          <mxGeometry relative="1" as="geometry" />
        </mxCell>
        <mxCell id="sFgn5G1fT1Je-X125Eh7-120" value="" style="edgeStyle=orthogonalEdgeStyle;rounded=0;orthogonalLoop=1;jettySize=auto;html=1;" edge="1" parent="1" source="sFgn5G1fT1Je-X125Eh7-121" target="sFgn5G1fT1Je-X125Eh7-123">
          <mxGeometry relative="1" as="geometry" />
        </mxCell>
        <mxCell id="sFgn5G1fT1Je-X125Eh7-121" value="选择功能场景" style="rounded=0;whiteSpace=wrap;html=1;" vertex="1" parent="1">
          <mxGeometry x="160" y="810" width="80" height="40" as="geometry" />
        </mxCell>
        <mxCell id="sFgn5G1fT1Je-X125Eh7-122" value="" style="edgeStyle=orthogonalEdgeStyle;rounded=0;orthogonalLoop=1;jettySize=auto;html=1;" edge="1" parent="1" source="sFgn5G1fT1Je-X125Eh7-123" target="sFgn5G1fT1Je-X125Eh7-125">
          <mxGeometry relative="1" as="geometry" />
        </mxCell>
        <mxCell id="sFgn5G1fT1Je-X125Eh7-213" value="" style="edgeStyle=orthogonalEdgeStyle;rounded=0;orthogonalLoop=1;jettySize=auto;html=1;" edge="1" parent="1" source="sFgn5G1fT1Je-X125Eh7-123" target="sFgn5G1fT1Je-X125Eh7-212">
          <mxGeometry relative="1" as="geometry" />
        </mxCell>
        <mxCell id="sFgn5G1fT1Je-X125Eh7-215" value="" style="edgeStyle=orthogonalEdgeStyle;rounded=0;orthogonalLoop=1;jettySize=auto;html=1;" edge="1" parent="1" source="sFgn5G1fT1Je-X125Eh7-123" target="sFgn5G1fT1Je-X125Eh7-212">
          <mxGeometry relative="1" as="geometry" />
        </mxCell>
        <mxCell id="sFgn5G1fT1Je-X125Eh7-217" style="edgeStyle=orthogonalEdgeStyle;rounded=0;orthogonalLoop=1;jettySize=auto;html=1;exitX=1;exitY=0.5;exitDx=0;exitDy=0;entryX=0;entryY=0.5;entryDx=0;entryDy=0;" edge="1" parent="1" source="sFgn5G1fT1Je-X125Eh7-123" target="sFgn5G1fT1Je-X125Eh7-216">
          <mxGeometry relative="1" as="geometry" />
        </mxCell>
        <mxCell id="sFgn5G1fT1Je-X125Eh7-123" value="显示对应输入框组件" style="rounded=0;whiteSpace=wrap;html=1;labelBorderColor=none;fillColor=#fff2cc;strokeColor=#d6b656;" vertex="1" parent="1">
          <mxGeometry x="160" y="890" width="80" height="40" as="geometry" />
        </mxCell>
        <mxCell id="sFgn5G1fT1Je-X125Eh7-124" value="" style="edgeStyle=orthogonalEdgeStyle;rounded=0;orthogonalLoop=1;jettySize=auto;html=1;" edge="1" parent="1" source="sFgn5G1fT1Je-X125Eh7-125" target="sFgn5G1fT1Je-X125Eh7-127">
          <mxGeometry relative="1" as="geometry" />
        </mxCell>
        <mxCell id="sFgn5G1fT1Je-X125Eh7-138" value="" style="edgeStyle=orthogonalEdgeStyle;rounded=0;orthogonalLoop=1;jettySize=auto;html=1;" edge="1" parent="1" source="sFgn5G1fT1Je-X125Eh7-125" target="sFgn5G1fT1Je-X125Eh7-137">
          <mxGeometry relative="1" as="geometry" />
        </mxCell>
        <mxCell id="sFgn5G1fT1Je-X125Eh7-125" value="个性化输入" style="rounded=0;whiteSpace=wrap;html=1;fillColor=#fff2cc;strokeColor=#d6b656;" vertex="1" parent="1">
          <mxGeometry x="160" y="1040" width="80" height="40" as="geometry" />
        </mxCell>
        <mxCell id="sFgn5G1fT1Je-X125Eh7-126" value="" style="edgeStyle=orthogonalEdgeStyle;rounded=0;orthogonalLoop=1;jettySize=auto;html=1;" edge="1" parent="1" source="sFgn5G1fT1Je-X125Eh7-127" target="sFgn5G1fT1Je-X125Eh7-129">
          <mxGeometry relative="1" as="geometry" />
        </mxCell>
        <mxCell id="sFgn5G1fT1Je-X125Eh7-140" value="" style="edgeStyle=orthogonalEdgeStyle;rounded=0;orthogonalLoop=1;jettySize=auto;html=1;" edge="1" parent="1" source="sFgn5G1fT1Je-X125Eh7-127" target="sFgn5G1fT1Je-X125Eh7-139">
          <mxGeometry relative="1" as="geometry" />
        </mxCell>
        <mxCell id="sFgn5G1fT1Je-X125Eh7-127" value="发送消息" style="rounded=0;whiteSpace=wrap;html=1;" vertex="1" parent="1">
          <mxGeometry x="160" y="1190" width="80" height="40" as="geometry" />
        </mxCell>
        <mxCell id="sFgn5G1fT1Je-X125Eh7-128" value="" style="edgeStyle=orthogonalEdgeStyle;rounded=0;orthogonalLoop=1;jettySize=auto;html=1;" edge="1" parent="1" source="sFgn5G1fT1Je-X125Eh7-129" target="sFgn5G1fT1Je-X125Eh7-132">
          <mxGeometry relative="1" as="geometry" />
        </mxCell>
        <mxCell id="sFgn5G1fT1Je-X125Eh7-129" value="消息处理&lt;br&gt;（同上）" style="rounded=0;whiteSpace=wrap;html=1;" vertex="1" parent="1">
          <mxGeometry x="160" y="1440" width="80" height="40" as="geometry" />
        </mxCell>
        <mxCell id="sFgn5G1fT1Je-X125Eh7-130" value="" style="edgeStyle=orthogonalEdgeStyle;rounded=0;orthogonalLoop=1;jettySize=auto;html=1;" edge="1" parent="1" source="sFgn5G1fT1Je-X125Eh7-132" target="sFgn5G1fT1Je-X125Eh7-133">
          <mxGeometry relative="1" as="geometry" />
        </mxCell>
        <mxCell id="sFgn5G1fT1Je-X125Eh7-131" value="" style="edgeStyle=orthogonalEdgeStyle;rounded=0;orthogonalLoop=1;jettySize=auto;html=1;" edge="1" parent="1" source="sFgn5G1fT1Je-X125Eh7-132" target="sFgn5G1fT1Je-X125Eh7-134">
          <mxGeometry relative="1" as="geometry" />
        </mxCell>
        <mxCell id="sFgn5G1fT1Je-X125Eh7-132" value="trycatch" style="rhombus;whiteSpace=wrap;html=1;rounded=0;" vertex="1" parent="1">
          <mxGeometry x="160" y="1510" width="80" height="50" as="geometry" />
        </mxCell>
        <mxCell id="sFgn5G1fT1Je-X125Eh7-133" value="抛出错误" style="whiteSpace=wrap;html=1;rounded=0;" vertex="1" parent="1">
          <mxGeometry x="20" y="1512.5" width="80" height="45" as="geometry" />
        </mxCell>
        <mxCell id="sFgn5G1fT1Je-X125Eh7-134" value="保存答案" style="rounded=0;whiteSpace=wrap;html=1;" vertex="1" parent="1">
          <mxGeometry x="160" y="1590" width="80" height="40" as="geometry" />
        </mxCell>
        <mxCell id="sFgn5G1fT1Je-X125Eh7-135" value="text" style="rounded=0;whiteSpace=wrap;html=1;" vertex="1" parent="1">
          <mxGeometry x="270" y="240" width="80" height="40" as="geometry" />
        </mxCell>
        <mxCell id="sFgn5G1fT1Je-X125Eh7-137" value="{&lt;br&gt;&amp;nbsp; uploadFilesUrl: [&lt;br&gt;&amp;nbsp; &amp;nbsp; fileType: enum,&lt;br&gt;&amp;nbsp; &amp;nbsp; fileUrl: xxx&lt;br&gt;&amp;nbsp; ],&lt;br&gt;&amp;nbsp; otherParams: {},&lt;br&gt;&amp;nbsp; text: &#39;一个问题&#39;&lt;br&gt;}" style="rounded=0;whiteSpace=wrap;html=1;align=left;fillColor=#fff2cc;strokeColor=#d6b656;" vertex="1" parent="1">
          <mxGeometry x="295" y="1000" width="140" height="120" as="geometry" />
        </mxCell>
        <mxCell id="sFgn5G1fT1Je-X125Eh7-223" value="" style="edgeStyle=orthogonalEdgeStyle;rounded=0;orthogonalLoop=1;jettySize=auto;html=1;" edge="1" parent="1" source="sFgn5G1fT1Je-X125Eh7-139" target="sFgn5G1fT1Je-X125Eh7-222">
          <mxGeometry relative="1" as="geometry" />
        </mxCell>
        <mxCell id="sFgn5G1fT1Je-X125Eh7-139" value="是否需要修改现有&lt;br&gt;直接调用url逻辑？" style="rounded=0;whiteSpace=wrap;html=1;fillColor=#f8cecc;strokeColor=#b85450;" vertex="1" parent="1">
          <mxGeometry x="294" y="1185" width="136" height="50" as="geometry" />
        </mxCell>
        <mxCell id="sFgn5G1fT1Je-X125Eh7-211" value="" style="shape=flexArrow;endArrow=classic;html=1;rounded=0;width=13.793103448275863;endSize=4.4;" edge="1" parent="1">
          <mxGeometry width="50" height="50" relative="1" as="geometry">
            <mxPoint x="200" y="610" as="sourcePoint" />
            <mxPoint x="200" y="800" as="targetPoint" />
          </mxGeometry>
        </mxCell>
        <mxCell id="sFgn5G1fT1Je-X125Eh7-225" value="" style="edgeStyle=orthogonalEdgeStyle;rounded=0;orthogonalLoop=1;jettySize=auto;html=1;" edge="1" parent="1" source="sFgn5G1fT1Je-X125Eh7-212" target="sFgn5G1fT1Je-X125Eh7-224">
          <mxGeometry relative="1" as="geometry" />
        </mxCell>
        <mxCell id="sFgn5G1fT1Je-X125Eh7-212" value="封装多个input组件" style="rounded=0;whiteSpace=wrap;html=1;labelBackgroundColor=none;fillColor=#fff2cc;strokeColor=#d6b656;" vertex="1" parent="1">
          <mxGeometry x="294" y="930" width="142" height="40" as="geometry" />
        </mxCell>
        <mxCell id="sFgn5G1fT1Je-X125Eh7-216" value="封装多个问题回显组件&lt;br&gt;img,xlsx...&lt;br&gt;小组件支持预览" style="rounded=0;whiteSpace=wrap;html=1;labelBackgroundColor=none;fillColor=#fff2cc;strokeColor=#d6b656;" vertex="1" parent="1">
          <mxGeometry x="294" y="830" width="142" height="60" as="geometry" />
        </mxCell>
        <mxCell id="sFgn5G1fT1Je-X125Eh7-222" value="fetchEventSource(url, options)" style="whiteSpace=wrap;html=1;rounded=0;fillColor=#f8cecc;strokeColor=#b85450;" vertex="1" parent="1">
          <mxGeometry x="256" y="1290" width="212" height="60" as="geometry" />
        </mxCell>
        <mxCell id="sFgn5G1fT1Je-X125Eh7-224" value="拆分文件夹" style="rounded=0;whiteSpace=wrap;html=1;labelBackgroundColor=none;" vertex="1" parent="1">
          <mxGeometry x="500" y="930" width="142" height="40" as="geometry" />
        </mxCell>
        <mxCell id="sFgn5G1fT1Je-X125Eh7-227" value="start与end必须成对出现,且不能互相穿插&lt;br&gt;中间由chunk补充" style="text;html=1;align=center;verticalAlign=middle;whiteSpace=wrap;rounded=0;fontSize=18;fontStyle=1" vertex="1" parent="1">
          <mxGeometry x="256" y="330" width="380" height="80" as="geometry" />
        </mxCell>
      </root>
    </mxGraphModel>
  </diagram>
</mxfile>
